<mxfile host="app.diagrams.net" modified="2021-10-29T13:15:01.022Z" agent="5.0 (Windows NT 10.0; Win64; x64) AppleWebKit/537.36 (KHTML, like Gecko) Chrome/95.0.4638.54 Safari/537.36" etag="2gAUETzZzSYBrjixuo3e" version="15.6.2" type="github">
  <diagram id="rIXRU2Wi2bjaIXBPkJ2B" name="Page-1">
    <mxGraphModel dx="1123" dy="775" grid="1" gridSize="10" guides="1" tooltips="1" connect="1" arrows="1" fold="1" page="0" pageScale="1" pageWidth="850" pageHeight="1100" math="0" shadow="0">
      <root>
        <mxCell id="0" />
        <mxCell id="1" parent="0" />
        <mxCell id="0lwYfgk2ARXsVW5tRLFd-46" value="Auto Scaling Group" style="dashed=1;verticalAlign=top;fontStyle=0;fontSize=10;fillColor=none;strokeColor=#FF6666;" vertex="1" parent="1">
          <mxGeometry x="-230" y="561" width="395" height="110" as="geometry" />
        </mxCell>
        <mxCell id="0lwYfgk2ARXsVW5tRLFd-36" value="Availability Zone A" style="fillColor=none;strokeColor=#147EBA;dashed=1;verticalAlign=top;fontStyle=0;fontColor=#147EBA;fontSize=10;" vertex="1" parent="1">
          <mxGeometry x="-215" y="540" width="130" height="141" as="geometry" />
        </mxCell>
        <mxCell id="UbwLkYC7kof-uV-PVnRL-1" value="Security group" style="fillColor=none;strokeColor=#DD3522;verticalAlign=top;fontStyle=0;fontColor=#DD3522;" parent="1" vertex="1">
          <mxGeometry x="90" y="-200" width="140" height="200" as="geometry" />
        </mxCell>
        <mxCell id="UbwLkYC7kof-uV-PVnRL-2" value="" style="sketch=0;points=[[0,0,0],[0.25,0,0],[0.5,0,0],[0.75,0,0],[1,0,0],[0,1,0],[0.25,1,0],[0.5,1,0],[0.75,1,0],[1,1,0],[0,0.25,0],[0,0.5,0],[0,0.75,0],[1,0.25,0],[1,0.5,0],[1,0.75,0]];outlineConnect=0;fontColor=#232F3E;gradientColor=#F78E04;gradientDirection=north;fillColor=#D05C17;strokeColor=#ffffff;dashed=0;verticalLabelPosition=bottom;verticalAlign=top;align=center;html=1;fontSize=12;fontStyle=0;aspect=fixed;shape=mxgraph.aws4.resourceIcon;resIcon=mxgraph.aws4.ec2;" parent="1" vertex="1">
          <mxGeometry x="120" y="-165" width="80" height="80" as="geometry" />
        </mxCell>
        <mxCell id="UbwLkYC7kof-uV-PVnRL-3" value="EC2&lt;br&gt;Instance&lt;br&gt;IP: xx.xx.xx.xx" style="text;html=1;strokeColor=none;fillColor=none;align=center;verticalAlign=middle;whiteSpace=wrap;rounded=0;" parent="1" vertex="1">
          <mxGeometry x="115" y="-75" width="90" height="45" as="geometry" />
        </mxCell>
        <mxCell id="UbwLkYC7kof-uV-PVnRL-4" value="" style="shape=image;html=1;verticalAlign=top;verticalLabelPosition=bottom;labelBackgroundColor=#ffffff;imageAspect=0;aspect=fixed;image=https://cdn0.iconfinder.com/data/icons/simpline-mix/64/simpline_47-128.png" parent="1" vertex="1">
          <mxGeometry x="340" y="-170" width="80" height="80" as="geometry" />
        </mxCell>
        <mxCell id="UbwLkYC7kof-uV-PVnRL-8" value="Authorized Inbound traffic" style="text;html=1;strokeColor=none;fillColor=none;align=left;verticalAlign=middle;whiteSpace=wrap;rounded=0;fontSize=10;" parent="1" vertex="1">
          <mxGeometry x="-89" y="-160" width="130" height="20" as="geometry" />
        </mxCell>
        <mxCell id="UbwLkYC7kof-uV-PVnRL-9" value="Authorized Outbound traffic" style="text;html=1;strokeColor=none;fillColor=none;align=left;verticalAlign=middle;whiteSpace=wrap;rounded=0;fontSize=10;" parent="1" vertex="1">
          <mxGeometry x="205" y="-120" width="160" height="30" as="geometry" />
        </mxCell>
        <mxCell id="0lwYfgk2ARXsVW5tRLFd-1" value="" style="verticalLabelPosition=bottom;html=1;verticalAlign=top;align=center;strokeColor=none;fillColor=#00BEF2;shape=mxgraph.azure.laptop;pointerEvents=1;fontSize=10;" vertex="1" parent="1">
          <mxGeometry x="-170" y="-145" width="50" height="30" as="geometry" />
        </mxCell>
        <mxCell id="0lwYfgk2ARXsVW5tRLFd-2" value="IP:&amp;nbsp;xx.xx.xx.xx" style="text;html=1;strokeColor=none;fillColor=none;align=center;verticalAlign=middle;whiteSpace=wrap;rounded=0;" vertex="1" parent="1">
          <mxGeometry x="-197.5" y="-115" width="105" height="30" as="geometry" />
        </mxCell>
        <mxCell id="0lwYfgk2ARXsVW5tRLFd-3" value="" style="verticalLabelPosition=bottom;html=1;verticalAlign=top;align=center;strokeColor=#b85450;fillColor=#f8cecc;shape=mxgraph.azure.laptop;pointerEvents=1;fontSize=10;" vertex="1" parent="1">
          <mxGeometry x="-170" y="-75" width="50" height="30" as="geometry" />
        </mxCell>
        <mxCell id="0lwYfgk2ARXsVW5tRLFd-4" value="IP:&amp;nbsp;xx.xx.xx.xx" style="text;html=1;strokeColor=none;fillColor=none;align=center;verticalAlign=middle;whiteSpace=wrap;rounded=0;" vertex="1" parent="1">
          <mxGeometry x="-197.5" y="-45" width="105" height="30" as="geometry" />
        </mxCell>
        <mxCell id="0lwYfgk2ARXsVW5tRLFd-12" value="" style="shape=flexArrow;endArrow=classic;html=1;rounded=0;fontSize=10;width=13.666666666666666;endSize=6.2;endWidth=6.4444444444444455;fillColor=#f8cecc;strokeColor=#b85450;" edge="1" parent="1">
          <mxGeometry width="50" height="50" relative="1" as="geometry">
            <mxPoint x="-89" y="-60.34" as="sourcePoint" />
            <mxPoint x="90" y="-60" as="targetPoint" />
          </mxGeometry>
        </mxCell>
        <mxCell id="0lwYfgk2ARXsVW5tRLFd-13" value="" style="shape=flexArrow;endArrow=classic;html=1;rounded=0;fontSize=10;width=13.666666666666666;endSize=6.2;endWidth=6.4444444444444455;fillColor=#d5e8d4;strokeColor=#82b366;entryX=0;entryY=0.438;entryDx=0;entryDy=0;entryPerimeter=0;" edge="1" parent="1" target="UbwLkYC7kof-uV-PVnRL-2">
          <mxGeometry width="50" height="50" relative="1" as="geometry">
            <mxPoint x="-89.25" y="-130.00000000000003" as="sourcePoint" />
            <mxPoint x="91.25" y="-130.00000000000003" as="targetPoint" />
          </mxGeometry>
        </mxCell>
        <mxCell id="0lwYfgk2ARXsVW5tRLFd-14" value="Unauthorized Inbound traffic" style="text;html=1;strokeColor=none;fillColor=none;align=left;verticalAlign=middle;whiteSpace=wrap;rounded=0;fontSize=10;" vertex="1" parent="1">
          <mxGeometry x="-89" y="-95" width="130" height="20" as="geometry" />
        </mxCell>
        <mxCell id="0lwYfgk2ARXsVW5tRLFd-15" value="" style="shape=flexArrow;endArrow=classic;html=1;rounded=0;fontSize=10;width=13.666666666666666;endSize=6.2;endWidth=6.4444444444444455;fillColor=#d5e8d4;strokeColor=#82b366;" edge="1" parent="1">
          <mxGeometry width="50" height="50" relative="1" as="geometry">
            <mxPoint x="200" y="-130.34" as="sourcePoint" />
            <mxPoint x="340" y="-130" as="targetPoint" />
          </mxGeometry>
        </mxCell>
        <mxCell id="0lwYfgk2ARXsVW5tRLFd-16" value="Security group" style="fillColor=none;strokeColor=#DD3522;verticalAlign=top;fontStyle=0;fontColor=#DD3522;" vertex="1" parent="1">
          <mxGeometry x="-215" y="60" width="140" height="200" as="geometry" />
        </mxCell>
        <mxCell id="0lwYfgk2ARXsVW5tRLFd-17" value="" style="sketch=0;points=[[0,0,0],[0.25,0,0],[0.5,0,0],[0.75,0,0],[1,0,0],[0,1,0],[0.25,1,0],[0.5,1,0],[0.75,1,0],[1,1,0],[0,0.25,0],[0,0.5,0],[0,0.75,0],[1,0.25,0],[1,0.5,0],[1,0.75,0]];outlineConnect=0;fontColor=#232F3E;gradientColor=#F78E04;gradientDirection=north;fillColor=#D05C17;strokeColor=#ffffff;dashed=0;verticalLabelPosition=bottom;verticalAlign=top;align=center;html=1;fontSize=12;fontStyle=0;aspect=fixed;shape=mxgraph.aws4.resourceIcon;resIcon=mxgraph.aws4.ec2;" vertex="1" parent="1">
          <mxGeometry x="-185" y="95" width="80" height="80" as="geometry" />
        </mxCell>
        <mxCell id="0lwYfgk2ARXsVW5tRLFd-18" value="EC2&lt;br&gt;Instance&lt;br&gt;IP: xx.xx.xx.xx" style="text;html=1;strokeColor=none;fillColor=none;align=center;verticalAlign=middle;whiteSpace=wrap;rounded=0;" vertex="1" parent="1">
          <mxGeometry x="-190" y="185" width="90" height="45" as="geometry" />
        </mxCell>
        <mxCell id="0lwYfgk2ARXsVW5tRLFd-19" value="Security group" style="fillColor=none;strokeColor=#DD3522;verticalAlign=top;fontStyle=0;fontColor=#DD3522;" vertex="1" parent="1">
          <mxGeometry x="-215" y="280" width="140" height="200" as="geometry" />
        </mxCell>
        <mxCell id="0lwYfgk2ARXsVW5tRLFd-20" value="" style="sketch=0;points=[[0,0,0],[0.25,0,0],[0.5,0,0],[0.75,0,0],[1,0,0],[0,1,0],[0.25,1,0],[0.5,1,0],[0.75,1,0],[1,1,0],[0,0.25,0],[0,0.5,0],[0,0.75,0],[1,0.25,0],[1,0.5,0],[1,0.75,0]];outlineConnect=0;fontColor=#232F3E;gradientColor=#F78E04;gradientDirection=north;fillColor=#D05C17;strokeColor=#ffffff;dashed=0;verticalLabelPosition=bottom;verticalAlign=top;align=center;html=1;fontSize=12;fontStyle=0;aspect=fixed;shape=mxgraph.aws4.resourceIcon;resIcon=mxgraph.aws4.ec2;" vertex="1" parent="1">
          <mxGeometry x="-185" y="315" width="80" height="80" as="geometry" />
        </mxCell>
        <mxCell id="0lwYfgk2ARXsVW5tRLFd-21" value="EC2&lt;br&gt;Instance&lt;br&gt;IP: xx.xx.xx.xx" style="text;html=1;strokeColor=none;fillColor=none;align=center;verticalAlign=middle;whiteSpace=wrap;rounded=0;" vertex="1" parent="1">
          <mxGeometry x="-190" y="405" width="90" height="45" as="geometry" />
        </mxCell>
        <mxCell id="0lwYfgk2ARXsVW5tRLFd-22" value="Security group" style="fillColor=none;strokeColor=#DD3522;verticalAlign=top;fontStyle=0;fontColor=#DD3522;" vertex="1" parent="1">
          <mxGeometry x="80" y="160" width="140" height="200" as="geometry" />
        </mxCell>
        <mxCell id="0lwYfgk2ARXsVW5tRLFd-23" value="" style="sketch=0;points=[[0,0,0],[0.25,0,0],[0.5,0,0],[0.75,0,0],[1,0,0],[0,1,0],[0.25,1,0],[0.5,1,0],[0.75,1,0],[1,1,0],[0,0.25,0],[0,0.5,0],[0,0.75,0],[1,0.25,0],[1,0.5,0],[1,0.75,0]];outlineConnect=0;fontColor=#232F3E;gradientColor=#F78E04;gradientDirection=north;fillColor=#D05C17;strokeColor=#ffffff;dashed=0;verticalLabelPosition=bottom;verticalAlign=top;align=center;html=1;fontSize=12;fontStyle=0;aspect=fixed;shape=mxgraph.aws4.resourceIcon;resIcon=mxgraph.aws4.ec2;" vertex="1" parent="1">
          <mxGeometry x="110" y="195" width="80" height="80" as="geometry" />
        </mxCell>
        <mxCell id="0lwYfgk2ARXsVW5tRLFd-24" value="EC2&lt;br&gt;Instance&lt;br&gt;IP: xx.xx.xx.xx" style="text;html=1;strokeColor=none;fillColor=none;align=center;verticalAlign=middle;whiteSpace=wrap;rounded=0;" vertex="1" parent="1">
          <mxGeometry x="105" y="285" width="90" height="45" as="geometry" />
        </mxCell>
        <mxCell id="0lwYfgk2ARXsVW5tRLFd-27" value="" style="endArrow=classic;html=1;rounded=0;fontSize=10;fillColor=#d5e8d4;edgeStyle=orthogonalEdgeStyle;strokeColor=#82b366;exitX=1;exitY=0.5;exitDx=0;exitDy=0;entryX=0;entryY=0.5;entryDx=0;entryDy=0;entryPerimeter=0;" edge="1" parent="1" source="0lwYfgk2ARXsVW5tRLFd-16" target="0lwYfgk2ARXsVW5tRLFd-23">
          <mxGeometry width="50" height="50" relative="1" as="geometry">
            <mxPoint x="-80" y="135" as="sourcePoint" />
            <mxPoint x="110" y="235" as="targetPoint" />
          </mxGeometry>
        </mxCell>
        <mxCell id="0lwYfgk2ARXsVW5tRLFd-28" value="" style="endArrow=classic;html=1;rounded=0;fontSize=10;fillColor=#f8cecc;exitX=1;exitY=0.5;exitDx=0;exitDy=0;edgeStyle=orthogonalEdgeStyle;strokeColor=#b85450;" edge="1" parent="1" source="0lwYfgk2ARXsVW5tRLFd-19" target="0lwYfgk2ARXsVW5tRLFd-22">
          <mxGeometry width="50" height="50" relative="1" as="geometry">
            <mxPoint x="70" y="270" as="sourcePoint" />
            <mxPoint x="120" y="220" as="targetPoint" />
          </mxGeometry>
        </mxCell>
        <mxCell id="0lwYfgk2ARXsVW5tRLFd-30" value="Authorized Intbound Traffic" style="text;html=1;strokeColor=none;fillColor=none;align=right;verticalAlign=middle;whiteSpace=wrap;rounded=0;fontSize=10;" vertex="1" parent="1">
          <mxGeometry x="10" y="175" width="60" height="40" as="geometry" />
        </mxCell>
        <mxCell id="0lwYfgk2ARXsVW5tRLFd-32" value="Unauthorized Intbound Traffic" style="text;html=1;strokeColor=none;fillColor=none;align=right;verticalAlign=middle;whiteSpace=wrap;rounded=0;fontSize=10;" vertex="1" parent="1">
          <mxGeometry y="270" width="70" height="40" as="geometry" />
        </mxCell>
        <mxCell id="0lwYfgk2ARXsVW5tRLFd-33" value="" style="sketch=0;outlineConnect=0;fontColor=#232F3E;gradientColor=none;fillColor=#FF9900;strokeColor=none;dashed=0;verticalLabelPosition=bottom;verticalAlign=top;align=center;html=1;fontSize=12;fontStyle=0;aspect=fixed;pointerEvents=1;shape=mxgraph.aws4.auto_scaling2;" vertex="1" parent="1">
          <mxGeometry x="-52.5" y="596" width="40" height="40" as="geometry" />
        </mxCell>
        <mxCell id="0lwYfgk2ARXsVW5tRLFd-35" value="" style="sketch=0;outlineConnect=0;fontColor=#232F3E;gradientColor=none;fillColor=#FF9900;strokeColor=none;dashed=0;verticalLabelPosition=bottom;verticalAlign=top;align=center;html=1;fontSize=12;fontStyle=0;aspect=fixed;pointerEvents=1;shape=mxgraph.aws4.instance2;" vertex="1" parent="1">
          <mxGeometry x="-195" y="574" width="40" height="40" as="geometry" />
        </mxCell>
        <mxCell id="0lwYfgk2ARXsVW5tRLFd-38" value="" style="sketch=0;outlineConnect=0;fontColor=#232F3E;gradientColor=none;fillColor=#FF9900;strokeColor=none;dashed=0;verticalLabelPosition=bottom;verticalAlign=top;align=center;html=1;fontSize=12;fontStyle=0;aspect=fixed;pointerEvents=1;shape=mxgraph.aws4.instance2;" vertex="1" parent="1">
          <mxGeometry x="-144" y="574" width="40" height="40" as="geometry" />
        </mxCell>
        <mxCell id="0lwYfgk2ARXsVW5tRLFd-39" value="" style="sketch=0;outlineConnect=0;fontColor=#232F3E;gradientColor=none;fillColor=#FF9900;strokeColor=none;dashed=0;verticalLabelPosition=bottom;verticalAlign=top;align=center;html=1;fontSize=12;fontStyle=0;aspect=fixed;pointerEvents=1;shape=mxgraph.aws4.instance2;" vertex="1" parent="1">
          <mxGeometry x="-195" y="621" width="40" height="40" as="geometry" />
        </mxCell>
        <mxCell id="0lwYfgk2ARXsVW5tRLFd-40" value="" style="sketch=0;outlineConnect=0;fontColor=#232F3E;gradientColor=none;fillColor=#FF9900;strokeColor=none;dashed=0;verticalLabelPosition=bottom;verticalAlign=top;align=center;html=1;fontSize=12;fontStyle=0;aspect=fixed;pointerEvents=1;shape=mxgraph.aws4.instance2;" vertex="1" parent="1">
          <mxGeometry x="-144" y="621" width="40" height="40" as="geometry" />
        </mxCell>
        <mxCell id="0lwYfgk2ARXsVW5tRLFd-41" value="Availability Zone B" style="fillColor=none;strokeColor=#147EBA;dashed=1;verticalAlign=top;fontStyle=0;fontColor=#147EBA;fontSize=10;" vertex="1" parent="1">
          <mxGeometry x="20" y="540" width="130" height="141" as="geometry" />
        </mxCell>
        <mxCell id="0lwYfgk2ARXsVW5tRLFd-42" value="" style="sketch=0;outlineConnect=0;fontColor=#232F3E;gradientColor=none;fillColor=#FF9900;strokeColor=none;dashed=0;verticalLabelPosition=bottom;verticalAlign=top;align=center;html=1;fontSize=12;fontStyle=0;aspect=fixed;pointerEvents=1;shape=mxgraph.aws4.instance2;" vertex="1" parent="1">
          <mxGeometry x="40" y="574" width="40" height="40" as="geometry" />
        </mxCell>
        <mxCell id="0lwYfgk2ARXsVW5tRLFd-43" value="" style="sketch=0;outlineConnect=0;fontColor=#232F3E;gradientColor=none;fillColor=#FF9900;strokeColor=none;dashed=0;verticalLabelPosition=bottom;verticalAlign=top;align=center;html=1;fontSize=12;fontStyle=0;aspect=fixed;pointerEvents=1;shape=mxgraph.aws4.instance2;" vertex="1" parent="1">
          <mxGeometry x="91" y="574" width="40" height="40" as="geometry" />
        </mxCell>
        <mxCell id="0lwYfgk2ARXsVW5tRLFd-44" value="" style="sketch=0;outlineConnect=0;fontColor=#232F3E;gradientColor=none;fillColor=#FF9900;strokeColor=none;dashed=0;verticalLabelPosition=bottom;verticalAlign=top;align=center;html=1;fontSize=12;fontStyle=0;aspect=fixed;pointerEvents=1;shape=mxgraph.aws4.instance2;" vertex="1" parent="1">
          <mxGeometry x="40" y="621" width="40" height="40" as="geometry" />
        </mxCell>
      </root>
    </mxGraphModel>
  </diagram>
</mxfile>
